<svg xmlns="http://www.w3.org/2000/svg" viewBox="0 0 64 64" role="img" aria-label="KDesk Accounting mark">
  <defs>
    <linearGradient id="kd-navy-panel" x1="0" y1="0" x2="1" y2="1">
      <stop offset="0%" stop-color="#234273" />
      <stop offset="100%" stop-color="#172b4c" />
    </linearGradient>
  </defs>

  <rect width="64" height="64" rx="15" fill="#1F3864" />
  <rect x="4" y="4" width="56" height="6" rx="3" fill="#FFF2CC" />
  <rect x="4" y="54" width="56" height="6" rx="3" fill="#2E75B6" />

  <g opacity="0.14" stroke="#9BC2E6" stroke-width="1">
    <path d="M18 18H46" />
    <path d="M18 26H46" />
    <path d="M18 34H46" />
    <path d="M18 42H46" />
    <path d="M22 16V46" />
    <path d="M30 16V46" />
    <path d="M38 16V46" />
    <path d="M46 16V46" />
  </g>

  <rect x="14" y="14" width="36" height="36" rx="10" fill="url(#kd-navy-panel)" stroke="rgba(255,255,255,0.18)" />

  <g fill="#FFFFFF">
    <rect x="22" y="20" width="6" height="24" rx="2" />
    <path d="M29 31.5L42.5 20.5C43.4 19.8 44.7 19.9 45.4 20.8L46.4 22C47.1 22.9 47 24.2 46.1 24.9L35.4 33.4L46.1 41.1C47.1 41.8 47.2 43.1 46.5 44L45.6 45.2C44.9 46.1 43.6 46.3 42.6 45.5L29 35.8V31.5Z" />
  </g>
</svg>
